<?xml version="1.0" encoding="UTF-8"?>
<svg width="1920" height="1080" viewBox="0 0 1920 1080" fill="none" xmlns="http://www.w3.org/2000/svg">
  <!-- Fondo base con gradiente -->
  <rect width="1920" height="1080" fill="url(#paint0_linear)"/>
  
  <!-- Patrón de ondas -->
  <path d="M0 540C320 480 640 600 960 540C1280 480 1600 600 1920 540V1080H0V540Z" fill="url(#paint1_linear)" fill-opacity="0.1"/>
  <path d="M0 540C320 600 640 480 960 540C1280 600 1600 480 1920 540V1080H0V540Z" fill="url(#paint2_linear)" fill-opacity="0.1"/>
  
  <!-- Círculos decorativos -->
  <circle cx="480" cy="270" r="200" fill="url(#paint3_radial)" fill-opacity="0.1"/>
  <circle cx="1440" cy="810" r="300" fill="url(#paint4_radial)" fill-opacity="0.1"/>
  
  <!-- Definición de gradientes -->
  <defs>
    <linearGradient id="paint0_linear" x1="0" y1="0" x2="1920" y2="1080" gradientUnits="userSpaceOnUse">
      <stop offset="0" stop-color="#000000"/>
      <stop offset="1" stop-color="#1a1a1a"/>
    </linearGradient>
    
    <linearGradient id="paint1_linear" x1="0" y1="540" x2="1920" y2="540" gradientUnits="userSpaceOnUse">
      <stop offset="0" stop-color="#3B82F6"/>
      <stop offset="1" stop-color="#8B5CF6"/>
    </linearGradient>
    
    <linearGradient id="paint2_linear" x1="0" y1="540" x2="1920" y2="540" gradientUnits="userSpaceOnUse">
      <stop offset="0" stop-color="#8B5CF6"/>
      <stop offset="1" stop-color="#EC4899"/>
    </linearGradient>
    
    <radialGradient id="paint3_radial" cx="0" cy="0" r="1" gradientUnits="userSpaceOnUse" gradientTransform="translate(480 270) rotate(90) scale(200)">
      <stop offset="0" stop-color="#3B82F6"/>
      <stop offset="1" stop-color="#3B82F6" stop-opacity="0"/>
    </radialGradient>
    
    <radialGradient id="paint4_radial" cx="0" cy="0" r="1" gradientUnits="userSpaceOnUse" gradientTransform="translate(1440 810) rotate(90) scale(300)">
      <stop offset="0" stop-color="#8B5CF6"/>
      <stop offset="1" stop-color="#8B5CF6" stop-opacity="0"/>
    </radialGradient>
  </defs>
</svg> 